<?xml version="1.0" encoding="iso-8859-1"?>
<!-- Generator: Adobe Illustrator 16.0.0, SVG Export Plug-In . SVG Version: 6.00 Build 0)  -->
<!DOCTYPE svg PUBLIC "-//W3C//DTD SVG 1.1//EN" "http://www.w3.org/Graphics/SVG/1.1/DTD/svg11.dtd">
<svg version="1.1" id="Capa_1" xmlns="http://www.w3.org/2000/svg" xmlns:xlink="http://www.w3.org/1999/xlink" x="0px" y="0px"
	 width="42"  height="42"  viewBox="0 0 512 512" style="enable-background:new 0 0 512 512;" xml:space="preserve">
<g>
	<g>
		<!-- Outer circle -->
		<path fill="#FFFFFF" d="M256,0C114.609,0,0,114.609,0,256c0,141.391,114.609,256,256,256c141.391,0,256-114.609,256-256
			C512,114.609,397.391,0,256,0z"/>
		<!-- Inner circle filled -->
		<circle cx="256" cy="256" r="216" fill="#FFFFFF"/>
		<!-- Rounded rectangles -->
		<rect fill="#000000" opacity="1" x="208" y="176" rx="8" ry="8" width="160" height="32"/>
		<rect fill="#000000" opacity="1" x="208" y="240" rx="8" ry="8" width="160" height="32"/>
		<rect fill="#000000" opacity="1" x="208" y="304" rx="8" ry="8" width="160" height="32"/>
		<rect fill="#000000" x="144" y="176" rx="8" ry="8" width="32" height="32"/>
		<rect fill="#000000" x="144" y="240" rx="8" ry="8" width="32" height="32"/>
		<rect fill="#000000" x="144" y="304" rx="8" ry="8" width="32" height="32"/>
	</g>
</g>
</svg>
