<svg id="Add" xmlns="http://www.w3.org/2000/svg" xmlns:xlink="http://www.w3.org/1999/xlink" width="41.041" height="42" viewBox="0 0 41.041 42">
  <defs>
    <filter id="Container">
      <feOffset input="SourceAlpha"/>
      <feGaussianBlur stdDeviation="5" result="blur"/>
      <feFlood flood-color="#fff" result="color"/>
      <feComposite operator="out" in="SourceGraphic" in2="blur"/>
      <feComposite operator="in" in="color"/>
      <feComposite operator="in" in2="SourceGraphic"/>
    </filter>
  </defs>
  <g data-type="innerShadowGroup">
    <g transform="matrix(1, 0, 0, 1, 0, 0)" filter="url(#Container)">
      <g id="Container-2" data-name="Container" fill="#fff">
        <path d="M20.521,0A20.764,20.764,0,0,1,41.041,21,20.764,20.764,0,0,1,20.521,42,20.764,20.764,0,0,1,0,21,20.764,20.764,0,0,1,20.521,0Z" stroke="none"/>
        <path d="M 20.5205078125 3 C 15.85372734069824 3 11.46259689331055 4.863578796386719 8.155986785888672 8.247440338134766 C 4.831096649169922 11.65002059936523 2.999996185302734 16.17897033691406 2.999996185302734 21 C 2.999996185302734 25.82102966308594 4.831096649169922 30.34997940063477 8.155986785888672 33.75255966186523 C 11.46259689331055 37.13642120361328 15.85372734069824 39 20.5205078125 39 C 25.18728828430176 39 29.57842826843262 37.13642120361328 32.88502883911133 33.75255966186523 C 36.20991897583008 30.34997940063477 38.04101943969727 25.82102966308594 38.04101943969727 21 C 38.04101943969727 16.17897033691406 36.20991897583008 11.65002059936523 32.88502883911133 8.247440338134766 C 29.57842826843262 4.863578796386719 25.18728828430176 3 20.5205078125 3 M 20.5205078125 0 C 31.85367774963379 0 41.04101943969727 9.402019500732422 41.04101943969727 21 C 41.04101943969727 32.59798049926758 31.85367774963379 42 20.5205078125 42 C 9.187347412109375 42 -3.814697265625e-06 32.59798049926758 -3.814697265625e-06 21 C -3.814697265625e-06 9.402019500732422 9.187347412109375 0 20.5205078125 0 Z" stroke="none"/>
      </g>
    </g>
    <g id="Container-3" data-name="Container" fill="none">
      <path d="M20.521,0A20.764,20.764,0,0,1,41.041,21,20.764,20.764,0,0,1,20.521,42,20.764,20.764,0,0,1,0,21,20.764,20.764,0,0,1,20.521,0Z" stroke="none"/>
      <path d="M 20.5205078125 3 C 15.85372734069824 3 11.46259689331055 4.863578796386719 8.155986785888672 8.247440338134766 C 4.831096649169922 11.65002059936523 2.999996185302734 16.17897033691406 2.999996185302734 21 C 2.999996185302734 25.82102966308594 4.831096649169922 30.34997940063477 8.155986785888672 33.75255966186523 C 11.46259689331055 37.13642120361328 15.85372734069824 39 20.5205078125 39 C 25.18728828430176 39 29.57842826843262 37.13642120361328 32.88502883911133 33.75255966186523 C 36.20991897583008 30.34997940063477 38.04101943969727 25.82102966308594 38.04101943969727 21 C 38.04101943969727 16.17897033691406 36.20991897583008 11.65002059936523 32.88502883911133 8.247440338134766 C 29.57842826843262 4.863578796386719 25.18728828430176 3 20.5205078125 3 M 20.5205078125 0 C 31.85367774963379 0 41.04101943969727 9.402019500732422 41.04101943969727 21 C 41.04101943969727 32.59798049926758 31.85367774963379 42 20.5205078125 42 C 9.187347412109375 42 -3.814697265625e-06 32.59798049926758 -3.814697265625e-06 21 C -3.814697265625e-06 9.402019500732422 9.187347412109375 0 20.5205078125 0 Z" stroke="none" fill="#fff"/>
    </g>
  </g>
  <g id="Group_44" data-name="Group 44" transform="translate(12.463 12.943)">
    <path id="Path_19" data-name="Path 19" d="M714,1937v16.114" transform="translate(-705.943 -1937)" fill="#fff" stroke="#2e344c" stroke-width="3"/>
    <path id="Path_20" data-name="Path 20" d="M0,0V16.114" transform="translate(16.114 8.057) rotate(90)" fill="#fff" stroke="#2e344c" stroke-width="3"/>
  </g>
  <g id="Group_44-2" data-name="Group 44" transform="translate(12.463 12.943)">
    <path id="Path_19-2" data-name="Path 19" d="M714,1937v16.114" transform="translate(-705.943 -1937)" fill="#fff" stroke="#fff" stroke-linecap="round" stroke-width="3"/>
    <path id="Path_20-2" data-name="Path 20" d="M0,0V16.114" transform="translate(16.114 8.057) rotate(90)" fill="#fff" stroke="#fff" stroke-linecap="round" stroke-width="3"/>
  </g>
</svg>
