<svg xmlns="http://www.w3.org/2000/svg" width="24.963" height="32.881" viewBox="0 0 24.963 32.881">
  <path id="Icon_ionic-md-flag" data-name="Icon ionic-md-flag" d="M30.153,6.144a28.045,28.045,0,0,1-3.869.36,28.6,28.6,0,0,1-6.358-1.045A29.738,29.738,0,0,0,13.365,4.5c-4.571,0-6.124,1.036-6.288,1.147L6.75,5.9V37.381h3.745V22.122a21.584,21.584,0,0,1,2.879-.171c2.13,0,4.119.856,6.225,1.327a30.662,30.662,0,0,0,6.779.985,28.272,28.272,0,0,0,3.776-.343c.585-.077,1.092-.146,1.56-.231V5.887C31.323,5.973,30.738,6.067,30.153,6.144Z" transform="translate(-6.75 -4.5)" fill="#a4a4a4"/>
</svg>
