<svg xmlns="http://www.w3.org/2000/svg" width="33.75" height="31.5" viewBox="0 0 33.75 31.5">
  <path id="Icon_awesome-university" data-name="Icon awesome-university" d="M34.875,9v1.125a.562.562,0,0,1-.562.563H32.625v.844a.844.844,0,0,1-.844.844H4.219a.844.844,0,0,1-.844-.844v-.844H1.688a.562.562,0,0,1-.562-.562V9a.562.562,0,0,1,.347-.52L17.785,2.293a.562.562,0,0,1,.43,0L34.528,8.48A.562.562,0,0,1,34.875,9ZM33.188,30.375H2.813a1.687,1.687,0,0,0-1.687,1.688v1.125a.562.562,0,0,0,.563.563H34.313a.562.562,0,0,0,.563-.562V32.063A1.687,1.687,0,0,0,33.188,30.375ZM6.75,13.5V27H4.219a.844.844,0,0,0-.844.844V29.25h29.25V27.844A.844.844,0,0,0,31.781,27H29.25V13.5h-4.5V27h-4.5V13.5h-4.5V27h-4.5V13.5Z" transform="translate(-1.125 -2.25)" fill="#a4a4a4"/>
</svg>
