<svg xmlns="http://www.w3.org/2000/svg" width="79.266" height="79.266" viewBox="0 0 79.266 79.266">
  <g id="ScienceOn" transform="translate(-112.423 89.267)">
    <g id="Path_1440" data-name="Path 1440" transform="translate(112.423 -89.267)" fill="#ee7b30">
      <path d="M 39.63281631469727 78.76564025878906 C 34.34969329833984 78.76564025878906 29.22488212585449 77.73104095458984 24.40071678161621 75.69059753417969 C 19.74085998535156 73.71963500976562 15.55579376220703 70.89794921875 11.96173858642578 67.30389404296875 C 8.367693901062012 63.7098503112793 5.545994281768799 59.52477264404297 3.575049638748169 54.86492919921875 C 1.534605145454407 50.04074859619141 0.5000051856040955 44.91593933105469 0.5000051856040955 39.63281631469727 C 0.5000051856040955 34.34969329833984 1.534594058990479 29.22488212585449 3.575049638748169 24.40071678161621 C 5.545994281768799 19.74085998535156 8.367693901062012 15.55579376220703 11.96173858642578 11.96173858642578 C 15.55579376220703 8.367693901062012 19.74085998535156 5.545994281768799 24.40071678161621 3.575049638748169 C 29.22488212585449 1.534594058990479 34.34969329833984 0.5000051856040955 39.63281631469727 0.5000051856040955 C 44.91593933105469 0.5000051856040955 50.04074859619141 1.534605145454407 54.86492919921875 3.575049638748169 C 59.52477264404297 5.545994281768799 63.7098503112793 8.367693901062012 67.30389404296875 11.96173858642578 C 70.89794921875 15.55579376220703 73.71963500976562 19.74085998535156 75.69059753417969 24.40071678161621 C 77.73104095458984 29.22488212585449 78.76564025878906 34.34969329833984 78.76564025878906 39.63281631469727 C 78.76564025878906 44.91593933105469 77.73104095458984 50.04074859619141 75.69059753417969 54.86491775512695 C 73.71963500976562 59.52477264404297 70.89794921875 63.7098503112793 67.30389404296875 67.30389404296875 C 63.7098503112793 70.89794921875 59.52477264404297 73.71963500976562 54.86491775512695 75.69059753417969 C 50.04074859619141 77.73104095458984 44.91593933105469 78.76564025878906 39.63281631469727 78.76564025878906 Z" stroke="none"/>
      <path d="M 39.63281631469727 0.9999923706054688 C 34.41698455810547 0.9999923706054688 29.35769271850586 2.021308898925781 24.59548187255859 4.035537719726562 C 19.9952392578125 5.981285095214844 15.86358261108398 8.766990661621094 12.31528472900391 12.31528472900391 C 8.766990661621094 15.86358261108398 5.981285095214844 19.9952392578125 4.035537719726562 24.59548187255859 C 2.021308898925781 29.35769271850586 0.9999923706054688 34.41698455810547 0.9999923706054688 39.63281631469727 C 0.9999923706054688 44.84864807128906 2.021308898925781 49.90793609619141 4.035537719726562 54.67013931274414 C 5.981285095214844 59.27039337158203 8.766990661621094 63.40205001831055 12.31528472900391 66.95034027099609 C 15.86358261108398 70.49862670898438 19.9952392578125 73.28433990478516 24.59548187255859 75.23007965087891 C 29.35769271850586 77.24432373046875 34.41698455810547 78.265625 39.63281631469727 78.265625 C 44.84864807128906 78.265625 49.90793609619141 77.24432373046875 54.67015075683594 75.23007965087891 C 59.27039337158203 73.28433990478516 63.40205001831055 70.49862670898438 66.95034027099609 66.95034027099609 C 70.49862670898438 63.40205001831055 73.28433990478516 59.27039337158203 75.23007965087891 54.67015075683594 C 77.24432373046875 49.90793609619141 78.265625 44.84864807128906 78.265625 39.63281631469727 C 78.265625 34.41698455810547 77.24432373046875 29.35769271850586 75.23007965087891 24.59548187255859 C 73.28433990478516 19.9952392578125 70.49862670898438 15.86358261108398 66.95034027099609 12.31528472900391 C 63.40205001831055 8.766990661621094 59.27039337158203 5.981285095214844 54.67013931274414 4.035537719726562 C 49.90793609619141 2.021308898925781 44.84864807128906 0.9999923706054688 39.63281631469727 0.9999923706054688 M 39.63281631469727 -7.62939453125e-06 C 61.52141571044922 -7.62939453125e-06 79.265625 17.74421691894531 79.265625 39.63281631469727 C 79.265625 61.52141571044922 61.52141571044922 79.265625 39.63281631469727 79.265625 C 17.74421691894531 79.265625 -7.62939453125e-06 61.52141571044922 -7.62939453125e-06 39.63281631469727 C -7.62939453125e-06 17.74421691894531 17.74421691894531 -7.62939453125e-06 39.63281631469727 -7.62939453125e-06 Z" stroke="none" fill="#ee7b30"/>
    </g>
    <path id="Icon_metro-lab" data-name="Icon metro-lab" d="M31.379,26.163,21.851,10.287V3.856h.964a.964.964,0,0,0,0-1.928h-9.64a.964.964,0,1,0,0,1.928h.964v6.431L4.611,26.163c-2.182,3.637-.5,6.613,3.744,6.613h19.28c4.242,0,5.927-2.976,3.744-6.613ZM9.832,21.208l6.235-10.391V3.856h3.856v6.961l6.235,10.391Z" transform="translate(134.061 -66.986)"/>
  </g>
</svg>
