<svg xmlns="http://www.w3.org/2000/svg" xmlns:xlink="http://www.w3.org/1999/xlink" width="78.675" height="78.675" viewBox="0 0 78.675 78.675">
  <defs>
    <filter id="Path_1" x="0" y="0" width="78.675" height="78.675" filterUnits="userSpaceOnUse">
      <feOffset input="SourceAlpha"/>
      <feGaussianBlur stdDeviation="10" result="blur"/>
      <feFlood flood-color="#e6ffaa" flood-opacity="0.236" result="color"/>
      <feComposite operator="out" in="SourceGraphic" in2="blur"/>
      <feComposite operator="in" in="color"/>
      <feComposite operator="in" in2="SourceGraphic"/>
    </filter>
  </defs>
  <g id="Tech_Off" data-name="Tech Off" transform="translate(-2 -66)">
    <g data-type="innerShadowGroup">
      <g id="Path_1-2" data-name="Path 1" transform="translate(2 66)" fill="rgba(230,255,170,0.27)">
        <path d="M 39.67476272583008 78.17476654052734 L 39.00000381469727 78.17476654052734 C 33.80231475830078 78.17476654052734 28.76036262512207 77.15690612792969 24.01421356201172 75.14945220947266 C 19.42972373962402 73.21037292480469 15.31232357025146 70.43431091308594 11.77639293670654 66.89837646484375 C 8.240453720092773 63.36244201660156 5.464393138885498 59.24504470825195 3.525313377380371 54.66055297851562 C 1.517863273620605 49.91440200805664 0.5000032782554626 44.87245178222656 0.5000032782554626 39.67476272583008 L 0.5000032782554626 39.00000381469727 C 0.5000032782554626 33.80231475830078 1.517863273620605 28.76036262512207 3.525313377380371 24.01421356201172 C 5.464393138885498 19.42972373962402 8.240453720092773 15.31232357025146 11.77639293670654 11.77639293670654 C 15.31232357025146 8.240453720092773 19.42972373962402 5.464393138885498 24.01421356201172 3.525313377380371 C 28.76036262512207 1.517863273620605 33.80231475830078 0.5000032782554626 39.00000381469727 0.5000032782554626 L 39.67476272583008 0.5000032782554626 C 44.87245178222656 0.5000032782554626 49.91440200805664 1.517863273620605 54.66055297851562 3.525313377380371 C 59.24504470825195 5.464393138885498 63.36244201660156 8.240453720092773 66.89837646484375 11.77639293670654 C 70.43431091308594 15.31232357025146 73.21037292480469 19.42972373962402 75.14945220947266 24.01421356201172 C 77.15690612792969 28.76036262512207 78.17476654052734 33.80231475830078 78.17476654052734 39.00000381469727 L 78.17476654052734 39.67476272583008 C 78.17476654052734 44.87245178222656 77.15690612792969 49.91440200805664 75.14945220947266 54.66055297851562 C 73.21037292480469 59.24504470825195 70.43431091308594 63.36244201660156 66.89837646484375 66.89837646484375 C 63.36244201660156 70.43431091308594 59.24504470825195 73.21037292480469 54.66055297851562 75.14945220947266 C 49.91440200805664 77.15690612792969 44.87245178222656 78.17476654052734 39.67476272583008 78.17476654052734 Z" stroke="none"/>
        <path d="M 39.00000381469727 0.9999923706054688 C 33.86959457397461 0.9999923706054688 28.89318466186523 2.004570007324219 24.2089958190918 3.985816955566406 C 19.6840934753418 5.899681091308594 15.6201171875 8.639762878417969 12.12993621826172 12.12993621826172 C 8.639762878417969 15.6201171875 5.899681091308594 19.6840934753418 3.985816955566406 24.2089958190918 C 2.004570007324219 28.89318466186523 0.9999923706054688 33.86959457397461 0.9999923706054688 39.00000381469727 L 0.9999923706054688 39.67476272583008 C 0.9999923706054688 44.80517196655273 2.004570007324219 49.78158569335938 3.985816955566406 54.46577453613281 C 5.899681091308594 58.99066162109375 8.639762878417969 63.05464935302734 12.12993621826172 66.54481506347656 C 15.6201171875 70.03499603271484 19.6840934753418 72.77507019042969 24.2089958190918 74.68894195556641 C 28.89318466186523 76.67018127441406 33.86959457397461 77.67475891113281 39.00000381469727 77.67475891113281 L 39.67476272583008 77.67475891113281 C 44.80517196655273 77.67475891113281 49.78158569335938 76.67018127441406 54.46577453613281 74.68894195556641 C 58.99066162109375 72.77507019042969 63.05464935302734 70.03499603271484 66.54481506347656 66.54481506347656 C 70.03499603271484 63.05464935302734 72.77507019042969 58.99066162109375 74.68894195556641 54.46577453613281 C 76.67018127441406 49.78158569335938 77.67475891113281 44.80517196655273 77.67475891113281 39.67476272583008 L 77.67475891113281 39.00000381469727 C 77.67475891113281 33.86959457397461 76.67018127441406 28.89318466186523 74.68894195556641 24.2089958190918 C 72.77507019042969 19.6840934753418 70.03499603271484 15.6201171875 66.54481506347656 12.12993621826172 C 63.05464935302734 8.639762878417969 58.99066162109375 5.899681091308594 54.46577453613281 3.985816955566406 C 49.78158569335938 2.004570007324219 44.80517196655273 0.9999923706054688 39.67476272583008 0.9999923706054688 L 39.00000381469727 0.9999923706054688 M 39.00000381469727 -7.62939453125e-06 L 39.67476272583008 -7.62939453125e-06 C 61.21387481689453 -7.62939453125e-06 78.67475891113281 17.46089553833008 78.67475891113281 39.00000381469727 L 78.67475891113281 39.67476272583008 C 78.67475891113281 61.21387481689453 61.21387481689453 78.67475891113281 39.67476272583008 78.67475891113281 L 39.00000381469727 78.67475891113281 C 17.46089553833008 78.67475891113281 -7.62939453125e-06 61.21387481689453 -7.62939453125e-06 39.67476272583008 L -7.62939453125e-06 39.00000381469727 C -7.62939453125e-06 17.46089553833008 17.46089553833008 -7.62939453125e-06 39.00000381469727 -7.62939453125e-06 Z" stroke="none"/>
      </g>
      <g transform="matrix(1, 0, 0, 1, 2, 66)" filter="url(#Path_1)">
        <g id="Path_1-3" data-name="Path 1" transform="translate(0 0)" fill="#fff">
          <path d="M 39.67476272583008 78.17476654052734 L 39.00000381469727 78.17476654052734 C 33.80231475830078 78.17476654052734 28.76036262512207 77.15690612792969 24.01421356201172 75.14945220947266 C 19.42972373962402 73.21037292480469 15.31232357025146 70.43431091308594 11.77639293670654 66.89837646484375 C 8.240453720092773 63.36244201660156 5.464393138885498 59.24504470825195 3.525313377380371 54.66055297851562 C 1.517863273620605 49.91440200805664 0.5000032782554626 44.87245178222656 0.5000032782554626 39.67476272583008 L 0.5000032782554626 39.00000381469727 C 0.5000032782554626 33.80231475830078 1.517863273620605 28.76036262512207 3.525313377380371 24.01421356201172 C 5.464393138885498 19.42972373962402 8.240453720092773 15.31232357025146 11.77639293670654 11.77639293670654 C 15.31232357025146 8.240453720092773 19.42972373962402 5.464393138885498 24.01421356201172 3.525313377380371 C 28.76036262512207 1.517863273620605 33.80231475830078 0.5000032782554626 39.00000381469727 0.5000032782554626 L 39.67476272583008 0.5000032782554626 C 44.87245178222656 0.5000032782554626 49.91440200805664 1.517863273620605 54.66055297851562 3.525313377380371 C 59.24504470825195 5.464393138885498 63.36244201660156 8.240453720092773 66.89837646484375 11.77639293670654 C 70.43431091308594 15.31232357025146 73.21037292480469 19.42972373962402 75.14945220947266 24.01421356201172 C 77.15690612792969 28.76036262512207 78.17476654052734 33.80231475830078 78.17476654052734 39.00000381469727 L 78.17476654052734 39.67476272583008 C 78.17476654052734 44.87245178222656 77.15690612792969 49.91440200805664 75.14945220947266 54.66055297851562 C 73.21037292480469 59.24504470825195 70.43431091308594 63.36244201660156 66.89837646484375 66.89837646484375 C 63.36244201660156 70.43431091308594 59.24504470825195 73.21037292480469 54.66055297851562 75.14945220947266 C 49.91440200805664 77.15690612792969 44.87245178222656 78.17476654052734 39.67476272583008 78.17476654052734 Z" stroke="none"/>
          <path d="M 39.00000381469727 0.9999923706054688 C 33.86959457397461 0.9999923706054688 28.89318466186523 2.004570007324219 24.2089958190918 3.985816955566406 C 19.6840934753418 5.899681091308594 15.6201171875 8.639762878417969 12.12993621826172 12.12993621826172 C 8.639762878417969 15.6201171875 5.899681091308594 19.6840934753418 3.985816955566406 24.2089958190918 C 2.004570007324219 28.89318466186523 0.9999923706054688 33.86959457397461 0.9999923706054688 39.00000381469727 L 0.9999923706054688 39.67476272583008 C 0.9999923706054688 44.80517196655273 2.004570007324219 49.78158569335938 3.985816955566406 54.46577453613281 C 5.899681091308594 58.99066162109375 8.639762878417969 63.05464935302734 12.12993621826172 66.54481506347656 C 15.6201171875 70.03499603271484 19.6840934753418 72.77507019042969 24.2089958190918 74.68894195556641 C 28.89318466186523 76.67018127441406 33.86959457397461 77.67475891113281 39.00000381469727 77.67475891113281 L 39.67476272583008 77.67475891113281 C 44.80517196655273 77.67475891113281 49.78158569335938 76.67018127441406 54.46577453613281 74.68894195556641 C 58.99066162109375 72.77507019042969 63.05464935302734 70.03499603271484 66.54481506347656 66.54481506347656 C 70.03499603271484 63.05464935302734 72.77507019042969 58.99066162109375 74.68894195556641 54.46577453613281 C 76.67018127441406 49.78158569335938 77.67475891113281 44.80517196655273 77.67475891113281 39.67476272583008 L 77.67475891113281 39.00000381469727 C 77.67475891113281 33.86959457397461 76.67018127441406 28.89318466186523 74.68894195556641 24.2089958190918 C 72.77507019042969 19.6840934753418 70.03499603271484 15.6201171875 66.54481506347656 12.12993621826172 C 63.05464935302734 8.639762878417969 58.99066162109375 5.899681091308594 54.46577453613281 3.985816955566406 C 49.78158569335938 2.004570007324219 44.80517196655273 0.9999923706054688 39.67476272583008 0.9999923706054688 L 39.00000381469727 0.9999923706054688 M 39.00000381469727 -7.62939453125e-06 L 39.67476272583008 -7.62939453125e-06 C 61.21387481689453 -7.62939453125e-06 78.67475891113281 17.46089553833008 78.67475891113281 39.00000381469727 L 78.67475891113281 39.67476272583008 C 78.67475891113281 61.21387481689453 61.21387481689453 78.67475891113281 39.67476272583008 78.67475891113281 L 39.00000381469727 78.67475891113281 C 17.46089553833008 78.67475891113281 -7.62939453125e-06 61.21387481689453 -7.62939453125e-06 39.67476272583008 L -7.62939453125e-06 39.00000381469727 C -7.62939453125e-06 17.46089553833008 17.46089553833008 -7.62939453125e-06 39.00000381469727 -7.62939453125e-06 Z" stroke="none"/>
        </g>
      </g>
      <g id="Path_1-4" data-name="Path 1" transform="translate(2 66)" fill="none">
        <path d="M 39.67476272583008 78.17476654052734 L 39.00000381469727 78.17476654052734 C 33.80231475830078 78.17476654052734 28.76036262512207 77.15690612792969 24.01421356201172 75.14945220947266 C 19.42972373962402 73.21037292480469 15.31232357025146 70.43431091308594 11.77639293670654 66.89837646484375 C 8.240453720092773 63.36244201660156 5.464393138885498 59.24504470825195 3.525313377380371 54.66055297851562 C 1.517863273620605 49.91440200805664 0.5000032782554626 44.87245178222656 0.5000032782554626 39.67476272583008 L 0.5000032782554626 39.00000381469727 C 0.5000032782554626 33.80231475830078 1.517863273620605 28.76036262512207 3.525313377380371 24.01421356201172 C 5.464393138885498 19.42972373962402 8.240453720092773 15.31232357025146 11.77639293670654 11.77639293670654 C 15.31232357025146 8.240453720092773 19.42972373962402 5.464393138885498 24.01421356201172 3.525313377380371 C 28.76036262512207 1.517863273620605 33.80231475830078 0.5000032782554626 39.00000381469727 0.5000032782554626 L 39.67476272583008 0.5000032782554626 C 44.87245178222656 0.5000032782554626 49.91440200805664 1.517863273620605 54.66055297851562 3.525313377380371 C 59.24504470825195 5.464393138885498 63.36244201660156 8.240453720092773 66.89837646484375 11.77639293670654 C 70.43431091308594 15.31232357025146 73.21037292480469 19.42972373962402 75.14945220947266 24.01421356201172 C 77.15690612792969 28.76036262512207 78.17476654052734 33.80231475830078 78.17476654052734 39.00000381469727 L 78.17476654052734 39.67476272583008 C 78.17476654052734 44.87245178222656 77.15690612792969 49.91440200805664 75.14945220947266 54.66055297851562 C 73.21037292480469 59.24504470825195 70.43431091308594 63.36244201660156 66.89837646484375 66.89837646484375 C 63.36244201660156 70.43431091308594 59.24504470825195 73.21037292480469 54.66055297851562 75.14945220947266 C 49.91440200805664 77.15690612792969 44.87245178222656 78.17476654052734 39.67476272583008 78.17476654052734 Z" stroke="none"/>
        <path d="M 39.00000381469727 0.9999923706054688 C 33.86959457397461 0.9999923706054688 28.89318466186523 2.004570007324219 24.2089958190918 3.985816955566406 C 19.6840934753418 5.899681091308594 15.6201171875 8.639762878417969 12.12993621826172 12.12993621826172 C 8.639762878417969 15.6201171875 5.899681091308594 19.6840934753418 3.985816955566406 24.2089958190918 C 2.004570007324219 28.89318466186523 0.9999923706054688 33.86959457397461 0.9999923706054688 39.00000381469727 L 0.9999923706054688 39.67476272583008 C 0.9999923706054688 44.80517196655273 2.004570007324219 49.78158569335938 3.985816955566406 54.46577453613281 C 5.899681091308594 58.99066162109375 8.639762878417969 63.05464935302734 12.12993621826172 66.54481506347656 C 15.6201171875 70.03499603271484 19.6840934753418 72.77507019042969 24.2089958190918 74.68894195556641 C 28.89318466186523 76.67018127441406 33.86959457397461 77.67475891113281 39.00000381469727 77.67475891113281 L 39.67476272583008 77.67475891113281 C 44.80517196655273 77.67475891113281 49.78158569335938 76.67018127441406 54.46577453613281 74.68894195556641 C 58.99066162109375 72.77507019042969 63.05464935302734 70.03499603271484 66.54481506347656 66.54481506347656 C 70.03499603271484 63.05464935302734 72.77507019042969 58.99066162109375 74.68894195556641 54.46577453613281 C 76.67018127441406 49.78158569335938 77.67475891113281 44.80517196655273 77.67475891113281 39.67476272583008 L 77.67475891113281 39.00000381469727 C 77.67475891113281 33.86959457397461 76.67018127441406 28.89318466186523 74.68894195556641 24.2089958190918 C 72.77507019042969 19.6840934753418 70.03499603271484 15.6201171875 66.54481506347656 12.12993621826172 C 63.05464935302734 8.639762878417969 58.99066162109375 5.899681091308594 54.46577453613281 3.985816955566406 C 49.78158569335938 2.004570007324219 44.80517196655273 0.9999923706054688 39.67476272583008 0.9999923706054688 L 39.00000381469727 0.9999923706054688 M 39.00000381469727 -7.62939453125e-06 L 39.67476272583008 -7.62939453125e-06 C 61.21387481689453 -7.62939453125e-06 78.67475891113281 17.46089553833008 78.67475891113281 39.00000381469727 L 78.67475891113281 39.67476272583008 C 78.67475891113281 61.21387481689453 61.21387481689453 78.67475891113281 39.67476272583008 78.67475891113281 L 39.00000381469727 78.67475891113281 C 17.46089553833008 78.67475891113281 -7.62939453125e-06 61.21387481689453 -7.62939453125e-06 39.67476272583008 L -7.62939453125e-06 39.00000381469727 C -7.62939453125e-06 17.46089553833008 17.46089553833008 -7.62939453125e-06 39.00000381469727 -7.62939453125e-06 Z" stroke="none" fill="#e6ffaa"/>
      </g>
    </g>
    <path id="Icon_awesome-laptop-code" data-name="Icon awesome-laptop-code" d="M15.745,12.363a1.212,1.212,0,0,0,1.4,0l.7-.534a.639.639,0,0,0,0-1.069L15.635,9.072l2.2-1.688a.639.639,0,0,0,0-1.069l-.7-.534a1.212,1.212,0,0,0-1.4,0l-3.6,2.757a.639.639,0,0,0,0,1.069l3.6,2.757Zm5.927-.534.7.534a1.212,1.212,0,0,0,1.4,0l3.6-2.757a.639.639,0,0,0,0-1.069l-3.6-2.757a1.212,1.212,0,0,0-1.4,0l-.7.534a.639.639,0,0,0,0,1.069l2.2,1.687-2.2,1.688a.639.639,0,0,0,0,1.069Zm16.851,7.827H23.555c-.046.936-.908,1.512-2.021,1.512H17.78c-1.154,0-2.039-.825-2.023-1.512H.988A.9.9,0,0,0,0,20.413v.756c0,1.663,1.778,3.024,3.951,3.024H35.56c2.173,0,3.951-1.361,3.951-3.024v-.756A.9.9,0,0,0,38.523,19.657ZM35.56,2.268C35.56,1.021,34.226,0,32.6,0H6.914C5.285,0,3.951,1.021,3.951,2.268V18.145H35.56ZM31.609,15.12H7.9V3.024H31.609Z" transform="translate(21.582 93.241)" fill="none" stroke="#000" stroke-width="1"/>
  </g>
</svg>
