<svg id="Tech_On" data-name="Tech On" xmlns="http://www.w3.org/2000/svg" width="78.675" height="78.675" viewBox="0 0 78.675 78.675">
  <g id="Rectangle_186" data-name="Rectangle 186" transform="translate(0)" fill="#e6ffaa" stroke="#e6ffaa" stroke-width="1">
    <rect width="78.675" height="78.675" rx="39" stroke="none"/>
    <rect x="0.5" y="0.5" width="77.675" height="77.675" rx="38.5" fill="none"/>
  </g>
  <path id="Icon_awesome-laptop-code" data-name="Icon awesome-laptop-code" d="M15.745,12.363a1.212,1.212,0,0,0,1.4,0l.7-.534a.639.639,0,0,0,0-1.069L15.635,9.072l2.2-1.688a.639.639,0,0,0,0-1.069l-.7-.534a1.212,1.212,0,0,0-1.4,0l-3.6,2.757a.639.639,0,0,0,0,1.069l3.6,2.757Zm5.927-.534.7.534a1.212,1.212,0,0,0,1.4,0l3.6-2.757a.639.639,0,0,0,0-1.069l-3.6-2.757a1.212,1.212,0,0,0-1.4,0l-.7.534a.639.639,0,0,0,0,1.069l2.2,1.687-2.2,1.688a.639.639,0,0,0,0,1.069Zm16.851,7.827H23.555c-.046.936-.908,1.512-2.021,1.512H17.78c-1.154,0-2.039-.825-2.023-1.512H.988A.9.9,0,0,0,0,20.413v.756c0,1.663,1.778,3.024,3.951,3.024H35.56c2.173,0,3.951-1.361,3.951-3.024v-.756A.9.9,0,0,0,38.523,19.657ZM35.56,2.268C35.56,1.021,34.226,0,32.6,0H6.914C5.285,0,3.951,1.021,3.951,2.268V18.145H35.56ZM31.609,15.12H7.9V3.024H31.609Z" transform="translate(19.582 27.241)"/>
</svg>
