<svg id="Group_38" data-name="Group 38" xmlns="http://www.w3.org/2000/svg" width="22.448" height="22.449" viewBox="0 0 22.448 22.449">
  <defs>
    <style>
      .cls-1 {
        fill: #f5f5f5;
      }
    </style>
  </defs>
  <g id="Group_37" data-name="Group 37">
    <path id="Path_15" data-name="Path 15" class="cls-1" d="M25.2,13.953a.873.873,0,0,0,0-1.228L18.05,5.529a21.3,21.3,0,0,0-1.891-1.771A3.119,3.119,0,0,0,14.224,3a3.119,3.119,0,0,0-1.933.757A21,21,0,0,0,10.4,5.529L3.253,12.724a.873.873,0,0,0,0,1.228.861.861,0,0,0,1.221,0l.494-.5v3.805a8.031,8.031,0,0,0,6.166,7.83,13.441,13.441,0,0,0,6.181,0,8.031,8.031,0,0,0,6.166-7.83v-3.8l.494.5a.861.861,0,0,0,1.222,0Z" transform="translate(-3 -3)"/>
  </g>
</svg>
