<svg id="Home" xmlns="http://www.w3.org/2000/svg" width="27.629" height="27.629" viewBox="0 0 27.629 27.629">
  <rect id="Rectangle_30" data-name="Rectangle 30" width="27.629" height="27.629" fill="none"/>
  <g id="Group_38" data-name="Group 38" transform="translate(2.591 2.355)">
    <g id="Group_37" data-name="Group 37">
      <path id="Path_15" data-name="Path 15" d="M25.2,13.953a.873.873,0,0,0,0-1.228L18.05,5.529a21.3,21.3,0,0,0-1.891-1.771A3.119,3.119,0,0,0,14.224,3a3.119,3.119,0,0,0-1.933.757A21,21,0,0,0,10.4,5.529L3.253,12.724a.873.873,0,0,0,0,1.228.861.861,0,0,0,1.221,0l.494-.5v3.805a8.031,8.031,0,0,0,6.166,7.83,13.441,13.441,0,0,0,6.181,0,8.031,8.031,0,0,0,6.166-7.83v-3.8l.494.5a.861.861,0,0,0,1.222,0Z" transform="translate(-3 -3)" fill="none" stroke="#f5f5f5" stroke-width="2"/>
    </g>
  </g>
</svg>
