<svg id="Profile" xmlns="http://www.w3.org/2000/svg" width="23.334" height="23.334" viewBox="0 0 23.334 23.334">
  <defs>
    <style>
      .cls-1 {
        fill: #f5f5f5;
        fill-rule: evenodd;
      }
    </style>
  </defs>
  <g id="profile-2" data-name="profile">
    <path id="Path_1041" data-name="Path 1041" class="cls-1" d="M16.485,9.243A4.243,4.243,0,1,1,12.243,5,4.243,4.243,0,0,1,16.485,9.243Zm-2.121,0a2.121,2.121,0,1,1-2.121-2.121A2.121,2.121,0,0,1,14.364,9.243Z" transform="translate(-0.576 -0.757)"/>
    <path id="Path_1042" data-name="Path 1042" class="cls-1" d="M12.667,1A11.667,11.667,0,1,0,24.334,12.667,11.667,11.667,0,0,0,12.667,1ZM3.121,12.667a9.5,9.5,0,0,0,2.024,5.878,9.547,9.547,0,0,1,15.113-.088A9.546,9.546,0,1,0,3.121,12.667Zm9.546,9.546a9.506,9.506,0,0,1-6.016-2.134,7.426,7.426,0,0,1,12.119-.071A9.508,9.508,0,0,1,12.667,22.213Z" transform="translate(-1 -1)"/>
  </g>
</svg>
